# xmcd CD database file
#
# Track frame offsets:
#	150
#	20075
#	35962
#	56175
#	75900
#	95100
#	122550
#	143175
#	164612
#	187787
#	202312
#
# Disc length: 2991 seconds
#
# Revision: 0
# Processed by: cddbd v1.5.1PL0 Copyright (c) Steve Scherf et al.
# Submitted via: CD2WAV32(JP) R3.22
#
DISCID=a10bad0b
DTITLE=エレキハチマキ - electro-cute
DYEAR=1999
DGENRE=Electronic
TTITLE0=1-2 Oh Yeah!
TTITLE1=愛の旅路
TTITLE2=ブルージーンズ (Album Mix)
TTITLE3=Insomnia
TTITLE4=PARK
TTITLE5=Walk this town
TTITLE6=PERFECT RUN
TTITLE7=DAYDREAM
TTITLE8=BLUE SKY (Ver.9.9)
TTITLE9=ICECREAMMAN (KAMINARIMIX)
TTITLE10=(It's a) Gloomy day (It's a groovy readymade biker mix)
EXTD=
EXTT0=
EXTT1=
EXTT2=
EXTT3=
EXTT4=
EXTT5=
EXTT6=
EXTT7=
EXTT8=
EXTT9=
EXTT10=
PLAYORDER=
